<?xml version="1.0" encoding="UTF-8"?>
<svg id="Laag_2" data-name="Laag 2" xmlns="http://www.w3.org/2000/svg" viewBox="0 0 46.79 24.72">
  <defs>
    <style>
      .cls-1 {
        fill: #3a1211;
      }
    </style>
  </defs>
  <g id="Laag_1-2" data-name="Laag 1">
    <g>
      <g>
        <g>
          <g>
            <path class="cls-1" d="M4.6,3.63v8.41c0,1.6-.89,2.64-2.56,2.64-1.25,0-2.05-.61-2.05-2.05h.26c0,1.07.5,1.71,1.53,1.71s1.29-.69,1.29-1.49V3.63h1.52ZM3.91,0c.53,0,.97.45.97.97s-.45.96-.97.96-.96-.43-.96-.96.43-.97.96-.97Z"/>
            <path class="cls-1" d="M13.39,8.69c-.05,2.05-1.36,2.99-2.92,2.99-2.38,0-3.56-1.33-3.56-3.88,0-3.26,1.82-4.27,3.37-4.27,2.08,0,3.15,1.25,3.15,3.53v.19h-4.86c0,1.57.03,4.11,2.19,4.11,1.42,0,2.35-1.09,2.38-2.67h.26ZM11.87,7c0-2.25-.62-3.21-1.63-3.21-.93,0-1.58.83-1.68,3.21h3.31Z"/>
            <path class="cls-1" d="M15.42,3.63h1.47v1.37h.06c.5-.85,1.2-1.28,1.95-1.36.19-.03.38-.05.58-.05,1.04,0,1.82.5,2.05,1.57h.03c.59-1.36,1.79-1.6,2.51-1.6.13,0,.26,0,.38.03,1.29.16,1.9,1.12,1.9,2.49v5.48h-1.52v-5.48c0-.96-.24-1.98-1.44-1.98s-1.77,1.07-1.77,2.22v5.24h-1.52v-5.31c0-.18,0-.37-.02-.54-.02-.53-.1-1.13-.61-1.36-.18-.1-.34-.13-.51-.13-.14,0-.3.02-.46.08-.96.13-1.55,1.05-1.55,2.14v5.11h-1.53V3.63Z"/>
            <path class="cls-1" d="M28.68,14.48V3.63h1.47v1.15h.05c.59-.94,1.41-1.25,2.27-1.25,2.19,0,2.92,1.73,2.92,3.96s-.91,4.15-3.16,4.15c-.8,0-1.5-.32-1.98-.99l-.06.02v3.8h-1.5ZM33.74,7.53c0-1.93-.22-3.63-1.71-3.63-1.58,0-1.87,1.81-1.87,3.84,0,1.74.19,3.63,1.76,3.63s1.82-2.09,1.82-3.84Z"/>
            <path class="cls-1" d="M38.36,0c.53,0,.97.45.97.97s-.45.96-.97.96-.96-.43-.96-.96.43-.97.96-.97ZM39.1,3.63v7.94h-1.55c0-2.14.02-5.78.02-7.94h1.53Z"/>
          </g>
          <g>
            <path class="cls-1" d="M16.24,23.38c-.46.61-1.28,1.2-2.38,1.2-1.39,0-1.98-.78-1.98-2.12v-5.66h-1.31v-.27h1.31v-1.74l1.42-1.09h.14v2.83h2.38v.27h-2.38v5.4c0,1.33.3,1.85,1.18,1.85.48,0,.94-.19,1.45-.81l.16.14Z"/>
            <path class="cls-1" d="M18.73,24.47h-1.53v-7.94h.19l1.18,2.35h.06c.19-1.47.96-2.46,2.24-2.46.26,0,.51.02.78.08v1.55c-.35-.16-.75-.27-1.12-.27-1.15,0-1.81.81-1.81,2.32v4.38Z"/>
            <path class="cls-1" d="M22.42,16.72c.34-.14.88-.24,1.39-.27.29,0,.56.02.85.03,1.33.19,2,1.05,2.21,2.3.34,1.76.58,3.08.8,4.19.19.88.42,1.2.85,1.23h.21l.03.26c-.24.08-.54.11-.73.13-.99,0-1.6-.21-1.85-1.25-.74.83-1.55,1.21-2.46,1.25-.11,0-.21,0-.3-.02-1.1-.06-1.87-.83-1.87-2.09,0-1.98,2.08-2.86,3.95-2.89-.26-1.53-.74-2.73-2.08-2.73-.26,0-.58.02-.91.11l-.06-.24ZM24.31,23.92c.61,0,1.34-.34,1.79-.85-.19-.82-.37-2.03-.59-3.26-2.09.13-2.43,1.63-2.43,2.38,0,1.15.45,1.73,1.23,1.73Z"/>
            <path class="cls-1" d="M28.83,16.53h1.65l2.53,6.09h.08l2.03-6.09h.77l-3.47,8.2h-.1l-3.48-8.2Z"/>
            <path class="cls-1" d="M43.19,21.59c-.05,2.05-1.36,2.99-2.92,2.99-2.38,0-3.56-1.33-3.56-3.88,0-3.26,1.82-4.27,3.37-4.27,2.08,0,3.15,1.25,3.15,3.53v.19h-4.86c0,1.57.03,4.11,2.19,4.11,1.42,0,2.35-1.09,2.38-2.67h.26ZM41.68,19.9c0-2.25-.62-3.21-1.63-3.21-.93,0-1.58.83-1.68,3.21h3.31Z"/>
            <path class="cls-1" d="M45.25,24.47l.02-12.32h1.52v12.32h-1.53Z"/>
          </g>
        </g>
        <g>
          <path class="cls-1" d="M4.22,18.94c-.01.53-.35.78-.76.78-.62,0-.93-.35-.93-1.01,0-.85.48-1.11.88-1.11.54,0,.82.33.82.92v.05h-1.27c0,.41,0,1.07.57,1.07.37,0,.61-.28.62-.7h.07ZM3.82,18.5c0-.59-.16-.84-.43-.84-.24,0-.41.22-.44.84h.86Z"/>
          <path class="cls-1" d="M4.64,18.97s0,.05,0,.07c0,.4.23.61.63.61.33,0,.51-.19.51-.43,0-.59-1.16-.4-1.16-1.06,0-.25.17-.57.69-.57.6,0,.74.39.74.62,0,.03,0,.07,0,.09h-.35c0-.5-.21-.65-.41-.65s-.33.15-.33.37c0,.5,1.17.31,1.17,1.08,0,.19-.14.61-.83.61-.47,0-.72-.25-.72-.66,0-.02,0-.06,0-.1h.07Z"/>
          <path class="cls-1" d="M7.85,19.41c-.12.16-.33.31-.62.31-.36,0-.52-.2-.52-.55v-1.48h-.34v-.07h.34v-.45l.37-.28h.04v.74h.62v.07h-.62v1.41c0,.35.08.48.31.48.13,0,.25-.05.38-.21l.04.04Z"/>
          <path class="cls-1" d="M8.31,19.18c.15,0,.28.12.28.27s-.12.27-.28.27-.27-.12-.27-.27.12-.27.27-.27Z"/>
          <path class="cls-1" d="M1.67,23.82v-2.39h-.01c-.1.28-.33.54-.63.58v-.3c.4-.06.77-.41.98-.87h.05v2.97h-.4Z"/>
          <path class="cls-1" d="M4.12,22.33c-.13.28-.38.35-.57.35-.44,0-.78-.32-.78-.85s.34-.96.91-.96.89.39.89,1.26c0,1.13-.45,1.71-1.11,1.71-.4,0-.68-.23-.68-.73h.08c0,.42.19.64.56.64.54,0,.7-.73.71-1.29,0-.05,0-.1,0-.13h-.02ZM3.66,22.59c.25,0,.46-.25.46-.8s-.15-.84-.46-.84c-.41,0-.47.47-.47.84,0,.3.07.8.46.8Z"/>
          <path class="cls-1" d="M5.02,23.82l1.36-2.61h-1.54l.12-.3h1.59v.04l-1.1,2.87h-.43Z"/>
        </g>
      </g>
      <path class="cls-1" d="M8.47,21.61c0-.36-.15-.6-.47-.64-.02,0-.04,0-.06,0-.02,0-.04,0-.06,0-.5.03-.65.79-.66,1.26,0,.05,0,.1,0,.14h.01c.13-.28.37-.35.56-.35.43,0,.74.31.78.8,0,.05,0,.1,0,.15-.02.51-.38.88-.91.88s-.88-.39-.88-1.27c0-1.03.44-1.71,1.1-1.71.4,0,.66.23.67.73h-.08ZM8.13,22.94c0-.46-.14-.8-.46-.8-.25,0-.45.23-.45.82s.14.83.44.83c.41,0,.47-.44.47-.84Z"/>
    </g>
  </g>
</svg>