<?xml version="1.0"?>
<svg id="Laag_2" data-name="Laag 2" xmlns="http://www.w3.org/2000/svg" viewBox="0 0 146.26 53.98">
  <defs>
    
  </defs>
  <g id="Laag_1-2" data-name="Laag 1">
    <g>
      <g>
        <path class="cls-1" d="M70.08,8.03v17.82c0,3.77-2.04,6.16-5.95,6.16-2.8,0-4.64-1.45-4.64-4.5h.55c.03,2.35,1.18,3.74,3.39,3.74,2.04,0,2.87-1.45,2.87-3.32V8.03h3.77ZM68.31,0c1.28,0,2.32,1.07,2.32,2.35s-1.04,2.28-2.32,2.28-2.28-1.04-2.28-2.28,1.04-2.35,2.28-2.35Z"></path>
        <path class="cls-1" d="M89.04,18.96c-.1,4.46-2.98,6.51-6.47,6.51-4.95,0-7.86-2.7-7.86-8.41,0-6.99,4.01-9.31,7.44-9.31,4.64,0,6.95,2.73,6.95,7.82v.42h-10.28c-.03.21-.03.66-.03.8,0,4.74,1.07,7.92,4.64,7.92,2.94,0,4.95-2.35,5.02-5.74h.59ZM82.12,8.34c-1.87,0-3.11,1.83-3.29,7.06h6.51c-.03-5.05-1.21-7.06-3.22-7.06Z"></path>
        <path class="cls-1" d="M93.11,8.03h3.67v2.91h.14c1.14-1.97,3.01-3.01,5.26-3.01s4.01.93,4.53,3.25h.07c1.25-2.63,3.63-3.36,5.4-3.36.21,0,.45.03.66.07,2.94.28,4.22,2.35,4.22,5.36v11.97h-3.77v-11.76c0-.38-.03-.76-.03-1.14-.14-1.42-.69-3.08-2.84-3.08-2.35,0-3.49,2.25-3.49,4.64v11.35h-3.77v-11.49c0-.38,0-.8-.03-1.18-.03-1.52-.41-3.08-2.21-3.08-.41,0-.8.1-1.21.35-1.73.38-2.73,2.18-2.73,4.26v11.14h-3.84V8.03Z"></path>
        <path class="cls-1" d="M121.79,31.56V8.03h3.63v2.42h.1c1.25-1.97,2.98-2.66,4.85-2.66,4.88,0,6.3,4.08,6.3,8.69s-1.87,8.93-6.85,8.93c-1.63,0-3.11-.59-4.15-1.9l-.14.03v8.03h-3.74ZM132.62,16.57c0-4.36-.41-7.89-3.39-7.89-3.15,0-3.7,3.81-3.7,8.27,0,3.94.38,7.79,3.49,7.79s3.6-4.22,3.6-8.17Z"></path>
        <path class="cls-1" d="M143.03,0c1.28,0,2.32,1.07,2.32,2.35s-1.04,2.28-2.32,2.28-2.32-1.04-2.32-2.28,1.07-2.35,2.32-2.35ZM144.87,8.03v17.2h-3.84c0-4.29.03-12.91.07-17.2h3.77Z"></path>
      </g>
      <g>
        <path class="cls-1" d="M2.28,28.59c1.26,0,2.28,1.05,2.28,2.31s-1.02,2.25-2.28,2.25-2.28-1.02-2.28-2.25,1.06-2.31,2.28-2.31ZM4.09,36.49v16.92H.31c0-4.22.03-12.7.07-16.92h3.71Z"></path>
        <path class="cls-1" d="M9.32,53.4v-16.92h3.61v2.86h.14c1.16-1.94,3.1-3.1,5.28-3.1,3.54,0,5,2.04,5,5.28v11.88h-3.71v-11.57c0-2.01-.17-4.25-2.79-4.25-2.49,0-3.74,2.28-3.74,5.21v10.62h-3.78Z"></path>
        <path class="cls-1" d="M41.35,47.24c-.1,4.36-2.96,6.4-6.23,6.4-5.41,0-7.76-3-7.76-8.34,0-5.96,3.44-9.09,7.42-9.09,5.07,0,6.19,3.34,6.19,5.21,0,.27,0,.65-.03.85h-3.34c0-3.54-1.05-5.48-2.86-5.48s-3.34,1.67-3.34,7.73v.78c0,5.99,1.87,7.59,4.43,7.59,2.69,0,4.94-2.04,4.97-5.65h.55Z"></path>
        <path class="cls-1" d="M57.92,47.24c-.1,4.39-2.93,6.4-6.37,6.4-4.87,0-7.73-2.66-7.73-8.27,0-6.88,3.95-9.16,7.32-9.16,4.56,0,6.84,2.69,6.84,7.69v.41h-10.11c-.03.2-.03.65-.03.78,0,4.66,1.06,7.79,4.56,7.79,2.89,0,4.87-2.31,4.94-5.65h.58ZM51.11,36.79c-1.84,0-3.06,1.8-3.23,6.94h6.4c-.03-4.97-1.19-6.94-3.17-6.94Z"></path>
        <path class="cls-1" d="M61.59,53.4v-16.92h3.61v2.86h.14c1.16-1.94,3.1-3.1,5.28-3.1,3.54,0,5,2.04,5,5.28v11.88h-3.71v-11.57c0-2.01-.17-4.25-2.79-4.25-2.49,0-3.74,2.28-3.74,5.21v10.62h-3.78Z"></path>
        <path class="cls-1" d="M90.69,51.05c-.99,1.33-2.76,2.59-5.24,2.59-3.17,0-4.42-1.77-4.42-4.6v-12.01h-2.72v-.54h2.72v-3.44l3.47-2.72h.34v6.16h5.04v.54h-5.04v11.61c0,2.76.65,3.85,2.42,3.85.99,0,2.04-.44,3.1-1.7l.34.27Z"></path>
        <path class="cls-1" d="M95.18,28.59c1.26,0,2.28,1.05,2.28,2.31s-1.02,2.25-2.28,2.25-2.28-1.02-2.28-2.25,1.06-2.31,2.28-2.31ZM96.98,36.49v16.92h-3.78c0-4.22.03-12.7.07-16.92h3.71Z"></path>
        <path class="cls-1" d="M99.67,36.49h4.05l5.31,12.49h.14l4.22-12.49h1.7l-7.56,17.5h-.2l-7.66-17.5Z"></path>
        <path class="cls-1" d="M130.64,47.24c-.1,4.39-2.93,6.4-6.37,6.4-4.87,0-7.73-2.66-7.73-8.27,0-6.88,3.95-9.16,7.32-9.16,4.56,0,6.84,2.69,6.84,7.69v.41h-10.11c-.03.2-.03.65-.03.78,0,4.66,1.06,7.79,4.56,7.79,2.89,0,4.87-2.31,4.94-5.65h.58ZM123.83,36.79c-1.84,0-3.06,1.8-3.23,6.94h6.4c-.03-4.97-1.19-6.94-3.17-6.94Z"></path>
        <path class="cls-1" d="M133.9,47.48c-.03.2-.03.44-.03.61,0,3.23,2.01,4.94,5.17,4.94,2.59,0,4.09-1.46,4.09-3.37,0-4.7-9.46-3.13-9.46-8.61,0-2.04,1.43-4.83,5.79-4.83,4.97,0,6.19,3.1,6.19,5.04,0,.24,0,.58-.03.75h-3.17c0-3.95-1.5-5.21-3.23-5.21-1.6,0-2.59,1.22-2.59,2.96,0,4.05,9.63,2.42,9.63,8.78,0,1.7-1.33,5.11-7.01,5.11-3.71,0-5.96-1.94-5.96-5.34,0-.2,0-.54.07-.82h.54Z"></path>
      </g>
    </g>
  </g>
</svg>