<?xml version="1.0"?>
<svg id="Laag_2" data-name="Laag 2" xmlns="http://www.w3.org/2000/svg" viewBox="0 0 135.1 52.72">
  <defs>
    
  </defs>
  <g id="Laag_1-2" data-name="Laag 1">
    <g>
      <g id="kVznvd.tif">
        <g>
          <path class="cls-1" d="M28.28,20.99l-6.46-.67-6.44-.6c-1.26-.12-2.45-.09-3.7-.09-1.01,0-1.97.02-2.98.1l-1.82.15C16.39,11.4,28.22,7.17,40.81,6.47l2.33-.13,1.93.02c-4.82,4.39-9.39,8.77-11.68,14.91l-2.69-.08-1.13-.08-1.3-.11Z"></path>
          <path class="cls-1" d="M31.78,26.37l-2.43-.1c-5.81-.52-11.29-1.76-17.07-2.36-2.56-.27-5.03-.47-7.58-.37-1.6.06-3.07.24-4.7.43,2.5-1.52,5.9-2.19,8.83-2.36,1.84-.1,3.64-.17,5.48,0l10.41.98c3.4.32,6.67.66,10.07.59l.94-.06c2.33-.16,4.54-.5,6.81-1.25-2.2,3.48-6.78,4.69-10.77,4.51Z"></path>
          <path class="cls-1" d="M20.73,8.83c-2.36.96-4.47,2.14-6.72,3.36,1.79-2.21,3.7-4.15,5.91-5.84,3.33-2.56,7-3.76,10.17-.55l-3.15.84c-1.63.44-3.17,1-4.76,1.59l-1.44.59Z"></path>
        </g>
      </g>
      <path class="cls-1" d="M59.24,7.89v17.51c0,3.71-2.01,6.05-5.85,6.05-2.75,0-4.55-1.43-4.55-4.42h.54c.03,2.31,1.16,3.67,3.33,3.67,2.01,0,2.82-1.43,2.82-3.26V7.89h3.71ZM57.5,0c1.26,0,2.28,1.05,2.28,2.31s-1.02,2.24-2.28,2.24-2.24-1.02-2.24-2.24,1.02-2.31,2.24-2.31Z"></path>
      <path class="cls-1" d="M77.62,18.63c-.1,4.39-2.92,6.39-6.36,6.39-4.86,0-7.72-2.65-7.72-8.26,0-6.87,3.94-9.14,7.31-9.14,4.56,0,6.83,2.69,6.83,7.68v.41h-10.1c-.03.2-.03.65-.03.78,0,4.66,1.05,7.79,4.56,7.79,2.89,0,4.86-2.31,4.93-5.64h.58ZM70.83,8.19c-1.84,0-3.06,1.8-3.23,6.94h6.39c-.03-4.96-1.19-6.94-3.16-6.94Z"></path>
      <path class="cls-1" d="M81.64,7.89h3.6v2.86h.14c1.12-1.94,2.96-2.96,5.17-2.96s3.94.92,4.45,3.2h.07c1.22-2.58,3.57-3.3,5.3-3.3.2,0,.44.03.65.07,2.89.27,4.15,2.31,4.15,5.27v11.76h-3.71v-11.56c0-.37-.03-.75-.03-1.12-.14-1.39-.68-3.03-2.79-3.03-2.31,0-3.43,2.21-3.43,4.55v11.15h-3.71v-11.29c0-.37,0-.78-.03-1.16-.03-1.5-.41-3.03-2.18-3.03-.41,0-.78.1-1.19.34-1.7.37-2.69,2.14-2.69,4.18v10.95h-3.77V7.89Z"></path>
      <path class="cls-1" d="M109.82,31V7.89h3.57v2.38h.1c1.22-1.94,2.92-2.62,4.76-2.62,4.79,0,6.19,4.01,6.19,8.53s-1.84,8.77-6.73,8.77c-1.6,0-3.06-.58-4.08-1.87l-.14.03v7.89h-3.67ZM120.46,16.28c0-4.28-.41-7.75-3.33-7.75-3.09,0-3.64,3.74-3.64,8.12,0,3.88.37,7.65,3.43,7.65s3.54-4.15,3.54-8.02Z"></path>
      <path class="cls-1" d="M130.7,0c1.26,0,2.28,1.05,2.28,2.31s-1.02,2.24-2.28,2.24-2.28-1.02-2.28-2.24,1.05-2.31,2.28-2.31ZM132.5,7.89v16.9h-3.77c0-4.22.03-12.68.07-16.9h3.71Z"></path>
      <path class="cls-1" d="M46.76,46.33c-.1,4.35-2.96,6.39-6.22,6.39-5.41,0-7.75-2.99-7.75-8.33,0-5.95,3.43-9.08,7.41-9.08,5.07,0,6.19,3.33,6.19,5.2,0,.27,0,.65-.03.85h-3.33c0-3.54-1.05-5.47-2.86-5.47s-3.33,1.67-3.33,7.72v.78c0,5.98,1.87,7.58,4.42,7.58,2.69,0,4.93-2.04,4.96-5.64h.54Z"></path>
      <path class="cls-1" d="M53.77,52.48h-3.74c.03-5,0-12.1,0-16.93h.44l2.92,5.13h.17c.31-3.23,1.9-5.41,4.62-5.41.54,0,1.12.07,1.77.2v3.81c-.82-.37-1.73-.68-2.58-.68-2.21,0-3.6,1.53-3.6,4.56v9.32Z"></path>
      <path class="cls-1" d="M62.51,35.59h3.71v12c0,1.36.14,3.71,2.72,3.71s3.67-2.45,3.67-4.93v-10.78h3.74v16.9h-3.57v-2.86h-.1c-1.16,1.94-2.99,3.09-5.17,3.09-3.54,0-5-2.07-5-5.27v-11.87Z"></path>
      <path class="cls-1" d="M83.38,27.7c1.26,0,2.28,1.05,2.28,2.31s-1.02,2.24-2.28,2.24-2.28-1.02-2.28-2.24,1.05-2.31,2.28-2.31ZM85.18,35.59v16.9h-3.77c0-4.22.03-12.68.07-16.9h3.71Z"></path>
      <path class="cls-1" d="M89.84,46.57c-.03.2-.03.44-.03.61,0,3.23,2.01,4.93,5.17,4.93,2.58,0,4.08-1.46,4.08-3.37,0-4.69-9.45-3.13-9.45-8.6,0-2.04,1.43-4.83,5.78-4.83,4.96,0,6.19,3.09,6.19,5.03,0,.24,0,.58-.03.75h-3.16c0-3.94-1.5-5.2-3.23-5.2-1.6,0-2.58,1.22-2.58,2.96,0,4.05,9.62,2.41,9.62,8.77,0,1.7-1.33,5.1-7,5.1-3.71,0-5.95-1.94-5.95-5.34,0-.2,0-.54.07-.82h.54Z"></path>
      <path class="cls-1" d="M119.49,46.33c-.1,4.39-2.92,6.39-6.36,6.39-4.86,0-7.72-2.65-7.72-8.26,0-6.87,3.94-9.14,7.31-9.14,4.56,0,6.83,2.69,6.83,7.68v.41h-10.1c-.03.2-.03.65-.03.78,0,4.66,1.05,7.79,4.56,7.79,2.89,0,4.86-2.31,4.93-5.64h.58ZM112.69,35.89c-1.84,0-3.06,1.8-3.23,6.93h6.39c-.03-4.96-1.19-6.93-3.16-6.93Z"></path>
      <path class="cls-1" d="M122.75,46.57c-.03.2-.03.44-.03.61,0,3.23,2.01,4.93,5.17,4.93,2.58,0,4.08-1.46,4.08-3.37,0-4.69-9.45-3.13-9.45-8.6,0-2.04,1.43-4.83,5.78-4.83,4.96,0,6.19,3.09,6.19,5.03,0,.24,0,.58-.03.75h-3.16c0-3.94-1.5-5.2-3.23-5.2-1.6,0-2.58,1.22-2.58,2.96,0,4.05,9.62,2.41,9.62,8.77,0,1.7-1.33,5.1-7,5.1-3.71,0-5.95-1.94-5.95-5.34,0-.2,0-.54.07-.82h.54Z"></path>
    </g>
  </g>
</svg>