<?xml version="1.0"?>
<svg id="Laag_2" data-name="Laag 2" xmlns="http://www.w3.org/2000/svg" viewBox="0 0 202.41 106.96">
  <defs>
    
  </defs>
  <g id="Laag_1-2" data-name="Laag 1">
    <g>
      <g>
        <path class="cls-1" d="M19.91,15.69v36.36c0,6.91-3.87,11.41-11.06,11.41-5.39,0-8.85-2.63-8.85-8.85h1.11c0,4.63,2.14,7.4,6.64,7.4s5.6-2.97,5.6-6.43V15.69h6.57ZM16.94,0c2.28,0,4.22,1.94,4.22,4.22s-1.94,4.15-4.22,4.15-4.15-1.87-4.15-4.15S14.66,0,16.94,0Z"></path>
        <path class="cls-1" d="M57.93,37.61c-.21,8.85-5.88,12.93-12.65,12.93-10.3,0-15.42-5.74-15.42-16.8,0-14.1,7.88-18.46,14.59-18.46,8.99,0,13.62,5.39,13.62,15.28v.83h-21.02c0,6.77.14,17.76,9.47,17.76,6.15,0,10.16-4.7,10.3-11.54h1.11ZM51.36,30.28c0-9.75-2.7-13.9-7.05-13.9-4.01,0-6.84,3.59-7.26,13.9h14.31Z"></path>
        <path class="cls-1" d="M66.7,15.69h6.36v5.95h.28c2.14-3.66,5.18-5.53,8.43-5.88.83-.14,1.66-.21,2.49-.21,4.49,0,7.88,2.14,8.85,6.77h.14c2.56-5.87,7.74-6.91,10.85-6.91.55,0,1.11,0,1.66.14,5.6.69,8.23,4.84,8.23,10.78v23.71h-6.57v-23.71c0-4.15-1.04-8.57-6.22-8.57s-7.67,4.63-7.67,9.61v22.67h-6.57v-22.95c0-.76,0-1.59-.07-2.35-.07-2.28-.42-4.91-2.63-5.88-.76-.42-1.45-.55-2.21-.55-.62,0-1.31.07-2,.35-4.15.55-6.71,4.56-6.71,9.26v22.12h-6.64V15.69Z"></path>
        <path class="cls-1" d="M124.06,62.63V15.69h6.36v4.98h.21c2.56-4.08,6.08-5.39,9.82-5.39,9.47,0,12.65,7.47,12.65,17.14s-3.94,17.97-13.69,17.97c-3.46,0-6.5-1.38-8.57-4.29l-.28.07v16.45h-6.5ZM145.98,32.56c0-8.36-.97-15.69-7.4-15.69-6.84,0-8.09,7.81-8.09,16.59,0,7.54.83,15.69,7.6,15.69s7.88-9.06,7.88-16.59Z"></path>
        <path class="cls-1" d="M165.95,0c2.28,0,4.22,1.94,4.22,4.22s-1.94,4.15-4.22,4.15-4.15-1.87-4.15-4.15,1.87-4.22,4.15-4.22ZM169.13,15.69v34.36h-6.71c0-9.26.07-25.03.07-34.36h6.64Z"></path>
      </g>
      <g>
        <path class="cls-1" d="M70.26,101.15c-2,2.63-5.53,5.18-10.3,5.18-6.01,0-8.57-3.39-8.57-9.19v-24.47h-5.67v-1.18h5.67v-7.53l6.15-4.7h.62v12.24h10.3v1.18h-10.3v23.37c0,5.74,1.31,8.02,5.12,8.02,2.07,0,4.08-.83,6.29-3.53l.69.62Z"></path>
        <path class="cls-1" d="M81.04,105.85h-6.64v-34.36h.83l5.12,10.16h.28c.83-6.36,4.15-10.65,9.68-10.65,1.11,0,2.21.07,3.39.35v6.7c-1.52-.69-3.25-1.17-4.84-1.17-4.98,0-7.81,3.53-7.81,10.02v18.94Z"></path>
        <path class="cls-1" d="M97.01,72.32c1.45-.62,3.8-1.04,6.01-1.17,1.24,0,2.42.07,3.66.14,5.74.83,8.64,4.56,9.54,9.95,1.45,7.61,2.49,13.34,3.46,18.11.83,3.8,1.8,5.18,3.66,5.32h.9l.14,1.11c-1.04.35-2.35.48-3.18.55-4.29,0-6.91-.9-8.02-5.39-3.18,3.59-6.71,5.25-10.65,5.39-.48,0-.9,0-1.31-.07-4.77-.27-8.09-3.59-8.09-9.06,0-8.57,8.99-12.37,17.08-12.51-1.11-6.64-3.18-11.82-8.99-11.82-1.11,0-2.49.07-3.94.49l-.28-1.04ZM105.16,103.5c2.63,0,5.81-1.45,7.74-3.66-.83-3.53-1.59-8.78-2.56-14.1-9.06.55-10.51,7.05-10.51,10.3,0,4.98,1.94,7.46,5.32,7.46Z"></path>
        <path class="cls-1" d="M124.72,71.49h7.12l10.92,26.34h.35l8.78-26.34h3.32l-15,35.46h-.41l-15.07-35.46Z"></path>
        <path class="cls-1" d="M186.86,93.41c-.21,8.85-5.88,12.93-12.65,12.93-10.3,0-15.42-5.74-15.42-16.8,0-14.1,7.88-18.46,14.59-18.46,8.99,0,13.62,5.39,13.62,15.28v.83h-21.02c0,6.77.14,17.76,9.47,17.76,6.15,0,10.16-4.7,10.3-11.54h1.11ZM180.29,86.08c0-9.75-2.7-13.9-7.05-13.9-4.01,0-6.84,3.59-7.26,13.9h14.31Z"></path>
        <path class="cls-1" d="M195.77,105.85l.07-53.3h6.57v53.3h-6.64Z"></path>
      </g>
    </g>
  </g>
</svg>